<mxfile host="app.diagrams.net" agent="Mozilla/5.0 (Windows NT 10.0; Win64; x64) AppleWebKit/537.36 (KHTML, like Gecko) Chrome/138.0.0.0 Safari/537.36 Edg/138.0.0.0" version="28.0.3">
  <diagram id="C5RBs43oDa-KdzZeNtuy" name="Page-1">
    <mxGraphModel dx="3987" dy="695" grid="1" gridSize="10" guides="1" tooltips="1" connect="1" arrows="1" fold="1" page="1" pageScale="1" pageWidth="827" pageHeight="1169" math="0" shadow="0">
      <root>
        <mxCell id="WIyWlLk6GJQsqaUBKTNV-0" />
        <mxCell id="WIyWlLk6GJQsqaUBKTNV-1" parent="WIyWlLk6GJQsqaUBKTNV-0" />
        <mxCell id="M7CGMbNuYNeq0SnUNNgH-6" value="ทบทวนสัญลักษณ์" style="swimlane;fontFamily=Sarabun;fontSource=https%3A%2F%2Ffonts.googleapis.com%2Fcss%3Ffamily%3DSarabun;" parent="WIyWlLk6GJQsqaUBKTNV-1" vertex="1">
          <mxGeometry x="-720" y="20" width="650" height="290" as="geometry" />
        </mxCell>
        <mxCell id="M7CGMbNuYNeq0SnUNNgH-2" value="&lt;font data-font-src=&quot;https://fonts.googleapis.com/css?family=Sarabun&quot; face=&quot;Sarabun&quot;&gt;เริ่มต้น&lt;/font&gt;" style="ellipse;whiteSpace=wrap;html=1;" parent="M7CGMbNuYNeq0SnUNNgH-6" vertex="1">
          <mxGeometry x="20" y="40" width="130" height="30" as="geometry" />
        </mxCell>
        <mxCell id="M7CGMbNuYNeq0SnUNNgH-5" value="" style="endArrow=classic;html=1;rounded=0;" parent="M7CGMbNuYNeq0SnUNNgH-6" edge="1">
          <mxGeometry width="50" height="50" relative="1" as="geometry">
            <mxPoint x="84.5" y="70" as="sourcePoint" />
            <mxPoint x="84.5" y="120" as="targetPoint" />
          </mxGeometry>
        </mxCell>
        <mxCell id="M7CGMbNuYNeq0SnUNNgH-3" value="&lt;font face=&quot;Sarabun&quot;&gt;สิ้นสุด&lt;/font&gt;" style="ellipse;whiteSpace=wrap;html=1;" parent="M7CGMbNuYNeq0SnUNNgH-6" vertex="1">
          <mxGeometry x="150" y="90" width="130" height="30" as="geometry" />
        </mxCell>
        <mxCell id="M7CGMbNuYNeq0SnUNNgH-4" value="" style="endArrow=classic;html=1;rounded=0;" parent="M7CGMbNuYNeq0SnUNNgH-6" edge="1">
          <mxGeometry width="50" height="50" relative="1" as="geometry">
            <mxPoint x="214.5" y="40" as="sourcePoint" />
            <mxPoint x="214.5" y="90" as="targetPoint" />
          </mxGeometry>
        </mxCell>
        <mxCell id="mvioNwK95yMqdUQ73LqQ-0" value="กระบวนการ" style="rounded=0;whiteSpace=wrap;html=1;fontFamily=Sarabun;fontSource=https%3A%2F%2Ffonts.googleapis.com%2Fcss%3Ffamily%3DSarabun;" parent="M7CGMbNuYNeq0SnUNNgH-6" vertex="1">
          <mxGeometry x="320" y="70" width="120" height="30" as="geometry" />
        </mxCell>
        <mxCell id="mvioNwK95yMqdUQ73LqQ-1" value="" style="endArrow=classic;html=1;rounded=0;" parent="M7CGMbNuYNeq0SnUNNgH-6" edge="1">
          <mxGeometry width="50" height="50" relative="1" as="geometry">
            <mxPoint x="379" y="40" as="sourcePoint" />
            <mxPoint x="379.5" y="70" as="targetPoint" />
          </mxGeometry>
        </mxCell>
        <mxCell id="mvioNwK95yMqdUQ73LqQ-2" value="" style="endArrow=classic;html=1;rounded=0;" parent="M7CGMbNuYNeq0SnUNNgH-6" edge="1">
          <mxGeometry width="50" height="50" relative="1" as="geometry">
            <mxPoint x="379.75" y="100" as="sourcePoint" />
            <mxPoint x="380.25" y="130" as="targetPoint" />
          </mxGeometry>
        </mxCell>
        <mxCell id="mvioNwK95yMqdUQ73LqQ-3" value="ประโยคเงื่อนไข" style="rhombus;whiteSpace=wrap;html=1;fontFamily=Sarabun;fontSource=https%3A%2F%2Ffonts.googleapis.com%2Fcss%3Ffamily%3DSarabun;" parent="M7CGMbNuYNeq0SnUNNgH-6" vertex="1">
          <mxGeometry x="490" y="60" width="100" height="60" as="geometry" />
        </mxCell>
        <mxCell id="mvioNwK95yMqdUQ73LqQ-4" value="" style="endArrow=classic;html=1;rounded=0;" parent="M7CGMbNuYNeq0SnUNNgH-6" edge="1">
          <mxGeometry width="50" height="50" relative="1" as="geometry">
            <mxPoint x="539.71" y="30" as="sourcePoint" />
            <mxPoint x="540.21" y="60" as="targetPoint" />
          </mxGeometry>
        </mxCell>
        <mxCell id="mvioNwK95yMqdUQ73LqQ-5" value="" style="endArrow=classic;html=1;rounded=0;" parent="M7CGMbNuYNeq0SnUNNgH-6" edge="1">
          <mxGeometry width="50" height="50" relative="1" as="geometry">
            <mxPoint x="539.71" y="120" as="sourcePoint" />
            <mxPoint x="540" y="175" as="targetPoint" />
          </mxGeometry>
        </mxCell>
        <mxCell id="mvioNwK95yMqdUQ73LqQ-7" value="จริง" style="edgeLabel;html=1;align=center;verticalAlign=middle;resizable=0;points=[];fontFamily=Sarabun;fontSource=https%3A%2F%2Ffonts.googleapis.com%2Fcss%3Ffamily%3DSarabun;" parent="mvioNwK95yMqdUQ73LqQ-5" vertex="1" connectable="0">
          <mxGeometry x="-0.4142" y="-1" relative="1" as="geometry">
            <mxPoint as="offset" />
          </mxGeometry>
        </mxCell>
        <mxCell id="mvioNwK95yMqdUQ73LqQ-6" value="" style="endArrow=classic;html=1;rounded=0;exitX=1;exitY=0.5;exitDx=0;exitDy=0;" parent="M7CGMbNuYNeq0SnUNNgH-6" source="mvioNwK95yMqdUQ73LqQ-3" edge="1">
          <mxGeometry width="50" height="50" relative="1" as="geometry">
            <mxPoint x="620" y="95" as="sourcePoint" />
            <mxPoint x="610" y="175" as="targetPoint" />
            <Array as="points">
              <mxPoint x="610" y="90" />
            </Array>
          </mxGeometry>
        </mxCell>
        <mxCell id="mvioNwK95yMqdUQ73LqQ-8" value="&lt;font data-font-src=&quot;https://fonts.googleapis.com/css?family=Sarabun&quot; face=&quot;Sarabun&quot;&gt;เท็จ&lt;/font&gt;" style="edgeLabel;html=1;align=center;verticalAlign=middle;resizable=0;points=[];" parent="mvioNwK95yMqdUQ73LqQ-6" vertex="1" connectable="0">
          <mxGeometry x="-0.0019" y="-2" relative="1" as="geometry">
            <mxPoint as="offset" />
          </mxGeometry>
        </mxCell>
        <mxCell id="mvioNwK95yMqdUQ73LqQ-9" value="&lt;font data-font-src=&quot;https://fonts.googleapis.com/css?family=Sarabun&quot; face=&quot;Sarabun&quot;&gt;ฟังก์ชัน/โมดูล&lt;/font&gt;" style="shape=process;whiteSpace=wrap;html=1;backgroundOutline=1;" parent="M7CGMbNuYNeq0SnUNNgH-6" vertex="1">
          <mxGeometry x="25" y="180" width="120" height="30" as="geometry" />
        </mxCell>
        <mxCell id="mvioNwK95yMqdUQ73LqQ-11" value="" style="endArrow=classic;html=1;rounded=0;" parent="M7CGMbNuYNeq0SnUNNgH-6" edge="1">
          <mxGeometry width="50" height="50" relative="1" as="geometry">
            <mxPoint x="84.70999999999998" y="150" as="sourcePoint" />
            <mxPoint x="85.20999999999998" y="180" as="targetPoint" />
          </mxGeometry>
        </mxCell>
        <mxCell id="mvioNwK95yMqdUQ73LqQ-12" value="" style="endArrow=classic;html=1;rounded=0;" parent="M7CGMbNuYNeq0SnUNNgH-6" edge="1">
          <mxGeometry width="50" height="50" relative="1" as="geometry">
            <mxPoint x="84.70999999999998" y="210" as="sourcePoint" />
            <mxPoint x="85.20999999999998" y="240" as="targetPoint" />
          </mxGeometry>
        </mxCell>
        <mxCell id="mvioNwK95yMqdUQ73LqQ-13" value="" style="strokeWidth=2;html=1;shape=mxgraph.flowchart.start_2;whiteSpace=wrap;" parent="M7CGMbNuYNeq0SnUNNgH-6" vertex="1">
          <mxGeometry x="205" y="185" width="20" height="20" as="geometry" />
        </mxCell>
        <mxCell id="mvioNwK95yMqdUQ73LqQ-16" value="" style="endArrow=classic;html=1;rounded=0;" parent="M7CGMbNuYNeq0SnUNNgH-6" edge="1">
          <mxGeometry width="50" height="50" relative="1" as="geometry">
            <mxPoint x="214.70999999999998" y="155" as="sourcePoint" />
            <mxPoint x="215.20999999999998" y="185" as="targetPoint" />
          </mxGeometry>
        </mxCell>
        <mxCell id="mvioNwK95yMqdUQ73LqQ-17" value="" style="endArrow=classic;html=1;rounded=0;entryX=0;entryY=0.5;entryDx=0;entryDy=0;entryPerimeter=0;" parent="M7CGMbNuYNeq0SnUNNgH-6" target="mvioNwK95yMqdUQ73LqQ-13" edge="1">
          <mxGeometry width="50" height="50" relative="1" as="geometry">
            <mxPoint x="189.99999999999997" y="155" as="sourcePoint" />
            <mxPoint x="190.49999999999997" y="185" as="targetPoint" />
            <Array as="points">
              <mxPoint x="190" y="180" />
            </Array>
          </mxGeometry>
        </mxCell>
        <mxCell id="mvioNwK95yMqdUQ73LqQ-18" value="" style="endArrow=classic;html=1;rounded=0;entryX=1;entryY=0.5;entryDx=0;entryDy=0;entryPerimeter=0;" parent="M7CGMbNuYNeq0SnUNNgH-6" target="mvioNwK95yMqdUQ73LqQ-13" edge="1">
          <mxGeometry width="50" height="50" relative="1" as="geometry">
            <mxPoint x="239.99999999999997" y="155" as="sourcePoint" />
            <mxPoint x="240.49999999999997" y="185" as="targetPoint" />
            <Array as="points">
              <mxPoint x="240" y="180" />
            </Array>
          </mxGeometry>
        </mxCell>
        <mxCell id="mvioNwK95yMqdUQ73LqQ-19" value="" style="endArrow=classic;html=1;rounded=0;" parent="M7CGMbNuYNeq0SnUNNgH-6" edge="1">
          <mxGeometry width="50" height="50" relative="1" as="geometry">
            <mxPoint x="214.70999999999998" y="205" as="sourcePoint" />
            <mxPoint x="215.20999999999998" y="235" as="targetPoint" />
          </mxGeometry>
        </mxCell>
        <mxCell id="mvioNwK95yMqdUQ73LqQ-20" value="&lt;font data-font-src=&quot;https://fonts.googleapis.com/css?family=Sarabun&quot; face=&quot;Sarabun&quot;&gt;ตัวเชื่อม&lt;/font&gt;" style="text;html=1;align=center;verticalAlign=middle;resizable=0;points=[];autosize=1;strokeColor=none;fillColor=none;" parent="M7CGMbNuYNeq0SnUNNgH-6" vertex="1">
          <mxGeometry x="220" y="190" width="60" height="30" as="geometry" />
        </mxCell>
        <mxCell id="mvioNwK95yMqdUQ73LqQ-25" value="" style="endArrow=classic;html=1;rounded=0;" parent="M7CGMbNuYNeq0SnUNNgH-6" edge="1">
          <mxGeometry width="50" height="50" relative="1" as="geometry">
            <mxPoint x="353.71" y="165" as="sourcePoint" />
            <mxPoint x="354.21" y="195" as="targetPoint" />
          </mxGeometry>
        </mxCell>
        <mxCell id="mvioNwK95yMqdUQ73LqQ-21" value="" style="verticalLabelPosition=bottom;verticalAlign=top;html=1;shape=offPageConnector;rounded=0;size=0.5;" parent="M7CGMbNuYNeq0SnUNNgH-6" vertex="1">
          <mxGeometry x="339" y="195" width="30" height="30" as="geometry" />
        </mxCell>
        <mxCell id="mvioNwK95yMqdUQ73LqQ-26" value="" style="endArrow=classic;html=1;rounded=0;" parent="M7CGMbNuYNeq0SnUNNgH-6" edge="1">
          <mxGeometry width="50" height="50" relative="1" as="geometry">
            <mxPoint x="405.71" y="195" as="sourcePoint" />
            <mxPoint x="406.21" y="225" as="targetPoint" />
          </mxGeometry>
        </mxCell>
        <mxCell id="mvioNwK95yMqdUQ73LqQ-27" value="" style="verticalLabelPosition=bottom;verticalAlign=top;html=1;shape=offPageConnector;rounded=0;size=0.5;" parent="M7CGMbNuYNeq0SnUNNgH-6" vertex="1">
          <mxGeometry x="391" y="165" width="30" height="30" as="geometry" />
        </mxCell>
        <mxCell id="mvioNwK95yMqdUQ73LqQ-28" value="หน้าต่อไป" style="text;html=1;align=center;verticalAlign=middle;resizable=0;points=[];autosize=1;strokeColor=none;fillColor=none;fontFamily=Sarabun;fontSource=https%3A%2F%2Ffonts.googleapis.com%2Fcss%3Ffamily%3DSarabun;" parent="M7CGMbNuYNeq0SnUNNgH-6" vertex="1">
          <mxGeometry x="345" y="220" width="70" height="30" as="geometry" />
        </mxCell>
        <mxCell id="mvioNwK95yMqdUQ73LqQ-29" value="ก" style="text;html=1;align=center;verticalAlign=middle;resizable=0;points=[];autosize=1;strokeColor=none;fillColor=none;fontFamily=Sarabun;fontSource=https%3A%2F%2Ffonts.googleapis.com%2Fcss%3Ffamily%3DSarabun;" parent="M7CGMbNuYNeq0SnUNNgH-6" vertex="1">
          <mxGeometry x="339" y="190" width="30" height="30" as="geometry" />
        </mxCell>
        <mxCell id="mvioNwK95yMqdUQ73LqQ-30" value="ก" style="text;html=1;align=center;verticalAlign=middle;resizable=0;points=[];autosize=1;strokeColor=none;fillColor=none;fontFamily=Sarabun;fontSource=https%3A%2F%2Ffonts.googleapis.com%2Fcss%3Ffamily%3DSarabun;" parent="M7CGMbNuYNeq0SnUNNgH-6" vertex="1">
          <mxGeometry x="391" y="160" width="30" height="30" as="geometry" />
        </mxCell>
        <mxCell id="mvioNwK95yMqdUQ73LqQ-32" value="แสดงผล/รับค่า" style="shape=parallelogram;perimeter=parallelogramPerimeter;whiteSpace=wrap;html=1;fixedSize=1;fontFamily=Sarabun;fontSource=https%3A%2F%2Ffonts.googleapis.com%2Fcss%3Ffamily%3DSarabun;" parent="M7CGMbNuYNeq0SnUNNgH-6" vertex="1">
          <mxGeometry x="450" y="210" width="120" height="30" as="geometry" />
        </mxCell>
        <mxCell id="mvioNwK95yMqdUQ73LqQ-33" value="" style="endArrow=classic;html=1;rounded=0;" parent="M7CGMbNuYNeq0SnUNNgH-6" edge="1">
          <mxGeometry width="50" height="50" relative="1" as="geometry">
            <mxPoint x="509.71" y="180" as="sourcePoint" />
            <mxPoint x="510.21" y="210" as="targetPoint" />
          </mxGeometry>
        </mxCell>
        <mxCell id="mvioNwK95yMqdUQ73LqQ-34" value="" style="endArrow=classic;html=1;rounded=0;" parent="M7CGMbNuYNeq0SnUNNgH-6" edge="1">
          <mxGeometry width="50" height="50" relative="1" as="geometry">
            <mxPoint x="509.71" y="240" as="sourcePoint" />
            <mxPoint x="510.21" y="270" as="targetPoint" />
          </mxGeometry>
        </mxCell>
        <mxCell id="mvioNwK95yMqdUQ73LqQ-36" value="แก้ไขโจทย์ปัญหา" style="swimlane;fontFamily=Sarabun;fontSource=https%3A%2F%2Ffonts.googleapis.com%2Fcss%3Ffamily%3DSarabun;" parent="WIyWlLk6GJQsqaUBKTNV-1" vertex="1">
          <mxGeometry x="-1720" y="680" width="2710" height="3110" as="geometry" />
        </mxCell>
        <mxCell id="0m0kFeIcwNb91voC8SZH-0" style="edgeStyle=orthogonalEdgeStyle;rounded=0;orthogonalLoop=1;jettySize=auto;html=1;" edge="1" parent="mvioNwK95yMqdUQ73LqQ-36" source="0m0kFeIcwNb91voC8SZH-1">
          <mxGeometry relative="1" as="geometry">
            <mxPoint x="1415" y="380" as="targetPoint" />
          </mxGeometry>
        </mxCell>
        <mxCell id="0m0kFeIcwNb91voC8SZH-1" value="&lt;font style=&quot;font-size: 36px;&quot;&gt;เริ่มต้น&lt;/font&gt;" style="rounded=1;whiteSpace=wrap;html=1;arcSize=50;" vertex="1" parent="mvioNwK95yMqdUQ73LqQ-36">
          <mxGeometry x="1330" y="90" width="170" height="60" as="geometry" />
        </mxCell>
        <mxCell id="0m0kFeIcwNb91voC8SZH-2" style="edgeStyle=orthogonalEdgeStyle;rounded=0;orthogonalLoop=1;jettySize=auto;html=1;" edge="1" parent="mvioNwK95yMqdUQ73LqQ-36" source="0m0kFeIcwNb91voC8SZH-6">
          <mxGeometry relative="1" as="geometry">
            <mxPoint x="1650" y="455" as="targetPoint" />
          </mxGeometry>
        </mxCell>
        <mxCell id="0m0kFeIcwNb91voC8SZH-3" value="ไม่มีเลยอะ" style="edgeLabel;html=1;align=center;verticalAlign=middle;resizable=0;points=[];" vertex="1" connectable="0" parent="0m0kFeIcwNb91voC8SZH-2">
          <mxGeometry x="0.1128" y="3" relative="1" as="geometry">
            <mxPoint as="offset" />
          </mxGeometry>
        </mxCell>
        <mxCell id="0m0kFeIcwNb91voC8SZH-4" style="edgeStyle=orthogonalEdgeStyle;rounded=0;orthogonalLoop=1;jettySize=auto;html=1;" edge="1" parent="mvioNwK95yMqdUQ73LqQ-36" source="0m0kFeIcwNb91voC8SZH-6">
          <mxGeometry relative="1" as="geometry">
            <mxPoint x="1412.5" y="650" as="targetPoint" />
          </mxGeometry>
        </mxCell>
        <mxCell id="0m0kFeIcwNb91voC8SZH-5" value="มีคับน้อง" style="edgeLabel;html=1;align=center;verticalAlign=middle;resizable=0;points=[];" vertex="1" connectable="0" parent="0m0kFeIcwNb91voC8SZH-4">
          <mxGeometry x="-0.054" y="2" relative="1" as="geometry">
            <mxPoint as="offset" />
          </mxGeometry>
        </mxCell>
        <mxCell id="0m0kFeIcwNb91voC8SZH-6" value="&lt;font style=&quot;font-size: 24px;&quot;&gt;มีมาม่าบ่อ้าย?&lt;/font&gt;&lt;div&gt;&lt;font style=&quot;font-size: 24px;&quot;&gt;ระหว่างการค้นหา&lt;/font&gt;&lt;/div&gt;" style="rhombus;whiteSpace=wrap;html=1;" vertex="1" parent="mvioNwK95yMqdUQ73LqQ-36">
          <mxGeometry x="1295" y="380" width="240" height="170" as="geometry" />
        </mxCell>
        <mxCell id="0m0kFeIcwNb91voC8SZH-7" style="edgeStyle=orthogonalEdgeStyle;rounded=0;orthogonalLoop=1;jettySize=auto;html=1;" edge="1" parent="mvioNwK95yMqdUQ73LqQ-36" source="0m0kFeIcwNb91voC8SZH-8">
          <mxGeometry relative="1" as="geometry">
            <mxPoint x="1880" y="455" as="targetPoint" />
          </mxGeometry>
        </mxCell>
        <mxCell id="0m0kFeIcwNb91voC8SZH-8" value="ให้เงินไปซื้อที่ร้านขายของที่ใกล้ที่สุด" style="rounded=0;whiteSpace=wrap;html=1;" vertex="1" parent="mvioNwK95yMqdUQ73LqQ-36">
          <mxGeometry x="1650" y="425" width="120" height="60" as="geometry" />
        </mxCell>
        <mxCell id="0m0kFeIcwNb91voC8SZH-9" style="edgeStyle=orthogonalEdgeStyle;rounded=0;orthogonalLoop=1;jettySize=auto;html=1;entryX=0.6;entryY=0.067;entryDx=0;entryDy=0;entryPerimeter=0;" edge="1" parent="mvioNwK95yMqdUQ73LqQ-36" source="0m0kFeIcwNb91voC8SZH-10" target="0m0kFeIcwNb91voC8SZH-15">
          <mxGeometry relative="1" as="geometry">
            <mxPoint x="1940" y="610" as="targetPoint" />
          </mxGeometry>
        </mxCell>
        <mxCell id="0m0kFeIcwNb91voC8SZH-10" value="ไปซื้อม่ามา" style="rounded=0;whiteSpace=wrap;html=1;" vertex="1" parent="mvioNwK95yMqdUQ73LqQ-36">
          <mxGeometry x="1880" y="425" width="120" height="60" as="geometry" />
        </mxCell>
        <mxCell id="0m0kFeIcwNb91voC8SZH-11" style="edgeStyle=orthogonalEdgeStyle;rounded=0;orthogonalLoop=1;jettySize=auto;html=1;" edge="1" parent="mvioNwK95yMqdUQ73LqQ-36" source="0m0kFeIcwNb91voC8SZH-15">
          <mxGeometry relative="1" as="geometry">
            <mxPoint x="1940" y="860" as="targetPoint" />
          </mxGeometry>
        </mxCell>
        <mxCell id="0m0kFeIcwNb91voC8SZH-12" value="เบิ่ดแล้วหำ" style="edgeLabel;html=1;align=center;verticalAlign=middle;resizable=0;points=[];" vertex="1" connectable="0" parent="0m0kFeIcwNb91voC8SZH-11">
          <mxGeometry x="0.2638" relative="1" as="geometry">
            <mxPoint as="offset" />
          </mxGeometry>
        </mxCell>
        <mxCell id="0m0kFeIcwNb91voC8SZH-13" style="edgeStyle=orthogonalEdgeStyle;rounded=0;orthogonalLoop=1;jettySize=auto;html=1;" edge="1" parent="mvioNwK95yMqdUQ73LqQ-36" source="0m0kFeIcwNb91voC8SZH-15">
          <mxGeometry relative="1" as="geometry">
            <mxPoint x="1740" y="685" as="targetPoint" />
          </mxGeometry>
        </mxCell>
        <mxCell id="0m0kFeIcwNb91voC8SZH-14" value="เหลืออยู่หำ" style="edgeLabel;html=1;align=center;verticalAlign=middle;resizable=0;points=[];" vertex="1" connectable="0" parent="0m0kFeIcwNb91voC8SZH-13">
          <mxGeometry x="0.1535" y="-1" relative="1" as="geometry">
            <mxPoint as="offset" />
          </mxGeometry>
        </mxCell>
        <mxCell id="0m0kFeIcwNb91voC8SZH-15" value="&lt;font style=&quot;font-size: 24px;&quot;&gt;อ้ายมีบ่อ้าย&lt;/font&gt;" style="rhombus;whiteSpace=wrap;html=1;" vertex="1" parent="mvioNwK95yMqdUQ73LqQ-36">
          <mxGeometry x="2010" y="610" width="150" height="150" as="geometry" />
        </mxCell>
        <mxCell id="0m0kFeIcwNb91voC8SZH-16" style="edgeStyle=orthogonalEdgeStyle;rounded=0;orthogonalLoop=1;jettySize=auto;html=1;entryX=0.25;entryY=0;entryDx=0;entryDy=0;" edge="1" parent="mvioNwK95yMqdUQ73LqQ-36" source="0m0kFeIcwNb91voC8SZH-17" target="0m0kFeIcwNb91voC8SZH-26">
          <mxGeometry relative="1" as="geometry">
            <mxPoint x="2230" y="900" as="targetPoint" />
          </mxGeometry>
        </mxCell>
        <mxCell id="0m0kFeIcwNb91voC8SZH-17" value="กลับบ้านมือเปล่า" style="rounded=0;whiteSpace=wrap;html=1;" vertex="1" parent="mvioNwK95yMqdUQ73LqQ-36">
          <mxGeometry x="1880" y="860" width="120" height="70" as="geometry" />
        </mxCell>
        <mxCell id="0m0kFeIcwNb91voC8SZH-92" style="edgeStyle=orthogonalEdgeStyle;rounded=0;orthogonalLoop=1;jettySize=auto;html=1;" edge="1" parent="mvioNwK95yMqdUQ73LqQ-36" source="0m0kFeIcwNb91voC8SZH-19" target="0m0kFeIcwNb91voC8SZH-23">
          <mxGeometry relative="1" as="geometry" />
        </mxCell>
        <mxCell id="0m0kFeIcwNb91voC8SZH-19" value="กลับบ้านพร้อมกับมาม่า" style="rounded=0;whiteSpace=wrap;html=1;" vertex="1" parent="mvioNwK95yMqdUQ73LqQ-36">
          <mxGeometry x="1620" y="655" width="120" height="60" as="geometry" />
        </mxCell>
        <mxCell id="0m0kFeIcwNb91voC8SZH-22" style="edgeStyle=orthogonalEdgeStyle;rounded=0;orthogonalLoop=1;jettySize=auto;html=1;" edge="1" parent="mvioNwK95yMqdUQ73LqQ-36" source="0m0kFeIcwNb91voC8SZH-23">
          <mxGeometry relative="1" as="geometry">
            <mxPoint x="1170" y="1421" as="targetPoint" />
          </mxGeometry>
        </mxCell>
        <mxCell id="0m0kFeIcwNb91voC8SZH-23" value="ต้มน้ำให้เดือด" style="rounded=0;whiteSpace=wrap;html=1;" vertex="1" parent="mvioNwK95yMqdUQ73LqQ-36">
          <mxGeometry x="1326" y="660" width="177.5" height="125" as="geometry" />
        </mxCell>
        <mxCell id="0m0kFeIcwNb91voC8SZH-26" value="สั่งเซเว่นมาส่ง" style="rounded=0;whiteSpace=wrap;html=1;" vertex="1" parent="mvioNwK95yMqdUQ73LqQ-36">
          <mxGeometry x="2230" y="1110" width="120" height="60" as="geometry" />
        </mxCell>
        <mxCell id="0m0kFeIcwNb91voC8SZH-27" style="edgeStyle=orthogonalEdgeStyle;rounded=0;orthogonalLoop=1;jettySize=auto;html=1;" edge="1" parent="mvioNwK95yMqdUQ73LqQ-36" source="0m0kFeIcwNb91voC8SZH-28">
          <mxGeometry relative="1" as="geometry">
            <mxPoint x="1480" y="1110" as="targetPoint" />
          </mxGeometry>
        </mxCell>
        <mxCell id="0m0kFeIcwNb91voC8SZH-28" value="เซเว่นมาส่งแล้ว" style="rounded=0;whiteSpace=wrap;html=1;" vertex="1" parent="mvioNwK95yMqdUQ73LqQ-36">
          <mxGeometry x="1420" y="940" width="120" height="60" as="geometry" />
        </mxCell>
        <mxCell id="0m0kFeIcwNb91voC8SZH-29" style="edgeStyle=orthogonalEdgeStyle;rounded=0;orthogonalLoop=1;jettySize=auto;html=1;" edge="1" parent="mvioNwK95yMqdUQ73LqQ-36" source="0m0kFeIcwNb91voC8SZH-33">
          <mxGeometry relative="1" as="geometry">
            <mxPoint x="1710" y="1520" as="targetPoint" />
          </mxGeometry>
        </mxCell>
        <mxCell id="0m0kFeIcwNb91voC8SZH-30" value="เดือดแล้ว" style="edgeLabel;html=1;align=center;verticalAlign=middle;resizable=0;points=[];" vertex="1" connectable="0" parent="0m0kFeIcwNb91voC8SZH-29">
          <mxGeometry x="-0.239" y="-3" relative="1" as="geometry">
            <mxPoint as="offset" />
          </mxGeometry>
        </mxCell>
        <mxCell id="0m0kFeIcwNb91voC8SZH-31" style="edgeStyle=orthogonalEdgeStyle;rounded=0;orthogonalLoop=1;jettySize=auto;html=1;" edge="1" parent="mvioNwK95yMqdUQ73LqQ-36" source="0m0kFeIcwNb91voC8SZH-33">
          <mxGeometry relative="1" as="geometry">
            <mxPoint x="800" y="1750" as="targetPoint" />
          </mxGeometry>
        </mxCell>
        <mxCell id="0m0kFeIcwNb91voC8SZH-32" value="ยังไม่เดือด" style="edgeLabel;html=1;align=center;verticalAlign=middle;resizable=0;points=[];" vertex="1" connectable="0" parent="0m0kFeIcwNb91voC8SZH-31">
          <mxGeometry x="-0.5078" relative="1" as="geometry">
            <mxPoint as="offset" />
          </mxGeometry>
        </mxCell>
        <mxCell id="0m0kFeIcwNb91voC8SZH-33" value="&lt;font style=&quot;font-size: 36px;&quot;&gt;น้ำเดือดยัง&lt;/font&gt;" style="rhombus;whiteSpace=wrap;html=1;" vertex="1" parent="mvioNwK95yMqdUQ73LqQ-36">
          <mxGeometry x="1050" y="1420" width="240" height="200" as="geometry" />
        </mxCell>
        <mxCell id="0m0kFeIcwNb91voC8SZH-34" style="edgeStyle=orthogonalEdgeStyle;rounded=0;orthogonalLoop=1;jettySize=auto;html=1;" edge="1" parent="mvioNwK95yMqdUQ73LqQ-36">
          <mxGeometry relative="1" as="geometry">
            <mxPoint x="830" y="1750" as="sourcePoint" />
            <mxPoint x="1100" y="1565" as="targetPoint" />
          </mxGeometry>
        </mxCell>
        <mxCell id="0m0kFeIcwNb91voC8SZH-35" style="edgeStyle=orthogonalEdgeStyle;rounded=0;orthogonalLoop=1;jettySize=auto;html=1;" edge="1" parent="mvioNwK95yMqdUQ73LqQ-36" source="0m0kFeIcwNb91voC8SZH-36" target="0m0kFeIcwNb91voC8SZH-44">
          <mxGeometry relative="1" as="geometry" />
        </mxCell>
        <mxCell id="0m0kFeIcwNb91voC8SZH-36" value="&lt;font style=&quot;font-size: 24px;&quot;&gt;รอจนกว่าจะเดือด&lt;/font&gt;" style="rounded=0;whiteSpace=wrap;html=1;" vertex="1" parent="mvioNwK95yMqdUQ73LqQ-36">
          <mxGeometry x="710" y="1750" width="190" height="110" as="geometry" />
        </mxCell>
        <mxCell id="0m0kFeIcwNb91voC8SZH-37" style="edgeStyle=orthogonalEdgeStyle;rounded=0;orthogonalLoop=1;jettySize=auto;html=1;" edge="1" parent="mvioNwK95yMqdUQ73LqQ-36" source="0m0kFeIcwNb91voC8SZH-38">
          <mxGeometry relative="1" as="geometry">
            <mxPoint x="2010" y="1520" as="targetPoint" />
          </mxGeometry>
        </mxCell>
        <mxCell id="0m0kFeIcwNb91voC8SZH-38" value="&lt;font style=&quot;font-size: 24px;&quot;&gt;เอามาม่าลงต้ม&lt;/font&gt;" style="rounded=0;whiteSpace=wrap;html=1;" vertex="1" parent="mvioNwK95yMqdUQ73LqQ-36">
          <mxGeometry x="1570" y="1465" width="220" height="110" as="geometry" />
        </mxCell>
        <mxCell id="0m0kFeIcwNb91voC8SZH-39" value="วันรุ่งขึ้นปรากฏว่าพี่ชายเอา Flowchart วางไว้ที่โต๊กกินข้าว&lt;div&gt;เนื้อหาประมาณว่า ต้มมาม่าให้พี่หน่อย&lt;/div&gt;" style="rounded=0;whiteSpace=wrap;html=1;" vertex="1" parent="mvioNwK95yMqdUQ73LqQ-36">
          <mxGeometry x="1272.25" y="180" width="285" height="150" as="geometry" />
        </mxCell>
        <mxCell id="0m0kFeIcwNb91voC8SZH-40" value="" style="edgeStyle=orthogonalEdgeStyle;rounded=0;orthogonalLoop=1;jettySize=auto;html=1;entryX=0.862;entryY=0.968;entryDx=0;entryDy=0;entryPerimeter=0;" edge="1" parent="mvioNwK95yMqdUQ73LqQ-36" source="0m0kFeIcwNb91voC8SZH-26" target="0m0kFeIcwNb91voC8SZH-42">
          <mxGeometry relative="1" as="geometry">
            <mxPoint x="2230" y="1140" as="sourcePoint" />
            <mxPoint x="1479" y="781" as="targetPoint" />
          </mxGeometry>
        </mxCell>
        <mxCell id="0m0kFeIcwNb91voC8SZH-41" style="edgeStyle=orthogonalEdgeStyle;rounded=0;orthogonalLoop=1;jettySize=auto;html=1;entryX=1;entryY=0.75;entryDx=0;entryDy=0;" edge="1" parent="mvioNwK95yMqdUQ73LqQ-36" source="0m0kFeIcwNb91voC8SZH-42" target="0m0kFeIcwNb91voC8SZH-28">
          <mxGeometry relative="1" as="geometry" />
        </mxCell>
        <mxCell id="0m0kFeIcwNb91voC8SZH-42" value="รอเซเว่นมาส่ง" style="rounded=0;whiteSpace=wrap;html=1;" vertex="1" parent="mvioNwK95yMqdUQ73LqQ-36">
          <mxGeometry x="1710" y="950" width="120" height="60" as="geometry" />
        </mxCell>
        <mxCell id="0m0kFeIcwNb91voC8SZH-43" style="edgeStyle=orthogonalEdgeStyle;rounded=0;orthogonalLoop=1;jettySize=auto;html=1;" edge="1" parent="mvioNwK95yMqdUQ73LqQ-36" source="0m0kFeIcwNb91voC8SZH-44">
          <mxGeometry relative="1" as="geometry">
            <mxPoint x="480" y="1640" as="targetPoint" />
          </mxGeometry>
        </mxCell>
        <mxCell id="0m0kFeIcwNb91voC8SZH-44" value="&lt;font style=&quot;font-size: 24px;&quot;&gt;ปรากฎว่าแก๊สหมด&lt;/font&gt;" style="rounded=0;whiteSpace=wrap;html=1;" vertex="1" parent="mvioNwK95yMqdUQ73LqQ-36">
          <mxGeometry x="717.5" y="2040" width="175" height="110" as="geometry" />
        </mxCell>
        <mxCell id="0m0kFeIcwNb91voC8SZH-45" style="edgeStyle=orthogonalEdgeStyle;rounded=0;orthogonalLoop=1;jettySize=auto;html=1;entryX=0.5;entryY=1;entryDx=0;entryDy=0;" edge="1" parent="mvioNwK95yMqdUQ73LqQ-36" source="0m0kFeIcwNb91voC8SZH-46" target="0m0kFeIcwNb91voC8SZH-48">
          <mxGeometry relative="1" as="geometry" />
        </mxCell>
        <mxCell id="0m0kFeIcwNb91voC8SZH-46" value="โทรสั่งแก๊ส" style="rounded=0;whiteSpace=wrap;html=1;" vertex="1" parent="mvioNwK95yMqdUQ73LqQ-36">
          <mxGeometry x="395" y="1540" width="170" height="95" as="geometry" />
        </mxCell>
        <mxCell id="0m0kFeIcwNb91voC8SZH-47" style="edgeStyle=orthogonalEdgeStyle;rounded=0;orthogonalLoop=1;jettySize=auto;html=1;" edge="1" parent="mvioNwK95yMqdUQ73LqQ-36" source="0m0kFeIcwNb91voC8SZH-61">
          <mxGeometry relative="1" as="geometry">
            <mxPoint x="660" y="1240" as="targetPoint" />
          </mxGeometry>
        </mxCell>
        <mxCell id="0m0kFeIcwNb91voC8SZH-48" value="แก๊สมาแล้ววว" style="rounded=0;whiteSpace=wrap;html=1;" vertex="1" parent="mvioNwK95yMqdUQ73LqQ-36">
          <mxGeometry x="240" y="1210" width="120" height="60" as="geometry" />
        </mxCell>
        <mxCell id="0m0kFeIcwNb91voC8SZH-49" style="edgeStyle=orthogonalEdgeStyle;rounded=0;orthogonalLoop=1;jettySize=auto;html=1;" edge="1" parent="mvioNwK95yMqdUQ73LqQ-36" source="0m0kFeIcwNb91voC8SZH-53" target="0m0kFeIcwNb91voC8SZH-57">
          <mxGeometry relative="1" as="geometry">
            <mxPoint x="1650" y="1260" as="targetPoint" />
          </mxGeometry>
        </mxCell>
        <mxCell id="0m0kFeIcwNb91voC8SZH-50" value="ไม่" style="edgeLabel;html=1;align=center;verticalAlign=middle;resizable=0;points=[];" vertex="1" connectable="0" parent="0m0kFeIcwNb91voC8SZH-49">
          <mxGeometry x="-0.054" y="-5" relative="1" as="geometry">
            <mxPoint as="offset" />
          </mxGeometry>
        </mxCell>
        <mxCell id="0m0kFeIcwNb91voC8SZH-51" style="edgeStyle=orthogonalEdgeStyle;rounded=0;orthogonalLoop=1;jettySize=auto;html=1;" edge="1" parent="mvioNwK95yMqdUQ73LqQ-36" source="0m0kFeIcwNb91voC8SZH-53">
          <mxGeometry relative="1" as="geometry">
            <mxPoint x="1310" y="980" as="targetPoint" />
          </mxGeometry>
        </mxCell>
        <mxCell id="0m0kFeIcwNb91voC8SZH-52" value="เงินพออยู่" style="edgeLabel;html=1;align=center;verticalAlign=middle;resizable=0;points=[];" vertex="1" connectable="0" parent="0m0kFeIcwNb91voC8SZH-51">
          <mxGeometry x="-0.1418" y="2" relative="1" as="geometry">
            <mxPoint as="offset" />
          </mxGeometry>
        </mxCell>
        <mxCell id="0m0kFeIcwNb91voC8SZH-53" value="เงินพอไหม?" style="rhombus;whiteSpace=wrap;html=1;" vertex="1" parent="mvioNwK95yMqdUQ73LqQ-36">
          <mxGeometry x="1440" y="1110" width="80" height="80" as="geometry" />
        </mxCell>
        <mxCell id="0m0kFeIcwNb91voC8SZH-54" style="edgeStyle=orthogonalEdgeStyle;rounded=0;orthogonalLoop=1;jettySize=auto;html=1;entryX=0;entryY=0.75;entryDx=0;entryDy=0;" edge="1" parent="mvioNwK95yMqdUQ73LqQ-36" source="0m0kFeIcwNb91voC8SZH-55" target="0m0kFeIcwNb91voC8SZH-23">
          <mxGeometry relative="1" as="geometry" />
        </mxCell>
        <mxCell id="0m0kFeIcwNb91voC8SZH-55" value="จ่ายเงินรับของ" style="rounded=0;whiteSpace=wrap;html=1;" vertex="1" parent="mvioNwK95yMqdUQ73LqQ-36">
          <mxGeometry x="1250" y="920" width="120" height="60" as="geometry" />
        </mxCell>
        <mxCell id="0m0kFeIcwNb91voC8SZH-56" style="edgeStyle=orthogonalEdgeStyle;rounded=0;orthogonalLoop=1;jettySize=auto;html=1;entryX=0.5;entryY=1;entryDx=0;entryDy=0;" edge="1" parent="mvioNwK95yMqdUQ73LqQ-36" source="0m0kFeIcwNb91voC8SZH-57" target="0m0kFeIcwNb91voC8SZH-53">
          <mxGeometry relative="1" as="geometry" />
        </mxCell>
        <mxCell id="0m0kFeIcwNb91voC8SZH-57" value="ขอเงินเพิ่ม" style="rounded=0;whiteSpace=wrap;html=1;" vertex="1" parent="mvioNwK95yMqdUQ73LqQ-36">
          <mxGeometry x="1590" y="1230" width="120" height="60" as="geometry" />
        </mxCell>
        <mxCell id="0m0kFeIcwNb91voC8SZH-58" style="edgeStyle=orthogonalEdgeStyle;rounded=0;orthogonalLoop=1;jettySize=auto;html=1;" edge="1" parent="mvioNwK95yMqdUQ73LqQ-36" source="0m0kFeIcwNb91voC8SZH-59" target="0m0kFeIcwNb91voC8SZH-62">
          <mxGeometry relative="1" as="geometry">
            <mxPoint x="765" y="1380" as="targetPoint" />
          </mxGeometry>
        </mxCell>
        <mxCell id="0m0kFeIcwNb91voC8SZH-59" value="ถอดถังแก๊สเก่าออกแล้าเอาถังแก๊สใหม๋มาเชื่อมใส่" style="rounded=0;whiteSpace=wrap;html=1;" vertex="1" parent="mvioNwK95yMqdUQ73LqQ-36">
          <mxGeometry x="660" y="1190" width="210" height="100" as="geometry" />
        </mxCell>
        <mxCell id="0m0kFeIcwNb91voC8SZH-60" value="" style="edgeStyle=orthogonalEdgeStyle;rounded=0;orthogonalLoop=1;jettySize=auto;html=1;" edge="1" parent="mvioNwK95yMqdUQ73LqQ-36" source="0m0kFeIcwNb91voC8SZH-48" target="0m0kFeIcwNb91voC8SZH-61">
          <mxGeometry relative="1" as="geometry">
            <mxPoint x="660" y="1240" as="targetPoint" />
            <mxPoint x="360" y="1240" as="sourcePoint" />
          </mxGeometry>
        </mxCell>
        <mxCell id="0m0kFeIcwNb91voC8SZH-61" value="ให้พ่อจ่ายเงิน" style="rounded=0;whiteSpace=wrap;html=1;" vertex="1" parent="mvioNwK95yMqdUQ73LqQ-36">
          <mxGeometry x="440" y="1210" width="120" height="60" as="geometry" />
        </mxCell>
        <mxCell id="0m0kFeIcwNb91voC8SZH-62" value="ต้มน้ำต่อ" style="rounded=0;whiteSpace=wrap;html=1;" vertex="1" parent="mvioNwK95yMqdUQ73LqQ-36">
          <mxGeometry x="705" y="1350" width="120" height="60" as="geometry" />
        </mxCell>
        <mxCell id="0m0kFeIcwNb91voC8SZH-63" style="edgeStyle=orthogonalEdgeStyle;rounded=0;orthogonalLoop=1;jettySize=auto;html=1;entryX=0.292;entryY=0.225;entryDx=0;entryDy=0;entryPerimeter=0;" edge="1" parent="mvioNwK95yMqdUQ73LqQ-36" source="0m0kFeIcwNb91voC8SZH-62" target="0m0kFeIcwNb91voC8SZH-33">
          <mxGeometry relative="1" as="geometry" />
        </mxCell>
        <mxCell id="0m0kFeIcwNb91voC8SZH-64" style="edgeStyle=orthogonalEdgeStyle;rounded=0;orthogonalLoop=1;jettySize=auto;html=1;" edge="1" parent="mvioNwK95yMqdUQ73LqQ-36" source="0m0kFeIcwNb91voC8SZH-65">
          <mxGeometry relative="1" as="geometry">
            <mxPoint x="2090" y="1730" as="targetPoint" />
          </mxGeometry>
        </mxCell>
        <mxCell id="0m0kFeIcwNb91voC8SZH-65" value="&lt;font style=&quot;font-size: 24px;&quot;&gt;สุกล่ะตักใส่ถ้วย&lt;/font&gt;" style="rounded=0;whiteSpace=wrap;html=1;" vertex="1" parent="mvioNwK95yMqdUQ73LqQ-36">
          <mxGeometry x="2010" y="1475" width="160" height="90" as="geometry" />
        </mxCell>
        <mxCell id="0m0kFeIcwNb91voC8SZH-66" style="edgeStyle=orthogonalEdgeStyle;rounded=0;orthogonalLoop=1;jettySize=auto;html=1;" edge="1" parent="mvioNwK95yMqdUQ73LqQ-36" source="0m0kFeIcwNb91voC8SZH-70" target="0m0kFeIcwNb91voC8SZH-72">
          <mxGeometry relative="1" as="geometry">
            <mxPoint x="1880" y="1990" as="targetPoint" />
            <Array as="points">
              <mxPoint x="1780" y="1790" />
              <mxPoint x="1780" y="2030" />
            </Array>
          </mxGeometry>
        </mxCell>
        <mxCell id="0m0kFeIcwNb91voC8SZH-67" value="น้ำ" style="edgeLabel;html=1;align=center;verticalAlign=middle;resizable=0;points=[];" vertex="1" connectable="0" parent="0m0kFeIcwNb91voC8SZH-66">
          <mxGeometry x="-0.5594" y="4" relative="1" as="geometry">
            <mxPoint as="offset" />
          </mxGeometry>
        </mxCell>
        <mxCell id="0m0kFeIcwNb91voC8SZH-68" style="edgeStyle=orthogonalEdgeStyle;rounded=0;orthogonalLoop=1;jettySize=auto;html=1;" edge="1" parent="mvioNwK95yMqdUQ73LqQ-36" source="0m0kFeIcwNb91voC8SZH-70" target="0m0kFeIcwNb91voC8SZH-72">
          <mxGeometry relative="1" as="geometry">
            <mxPoint x="2380" y="1980" as="targetPoint" />
          </mxGeometry>
        </mxCell>
        <mxCell id="0m0kFeIcwNb91voC8SZH-69" value="แห้ง" style="edgeLabel;html=1;align=center;verticalAlign=middle;resizable=0;points=[];" vertex="1" connectable="0" parent="0m0kFeIcwNb91voC8SZH-68">
          <mxGeometry x="-0.5323" y="-2" relative="1" as="geometry">
            <mxPoint as="offset" />
          </mxGeometry>
        </mxCell>
        <mxCell id="0m0kFeIcwNb91voC8SZH-70" value="แห้งหรือน้ำ" style="rhombus;whiteSpace=wrap;html=1;" vertex="1" parent="mvioNwK95yMqdUQ73LqQ-36">
          <mxGeometry x="2030" y="1730" width="130" height="120" as="geometry" />
        </mxCell>
        <mxCell id="0m0kFeIcwNb91voC8SZH-71" style="edgeStyle=orthogonalEdgeStyle;rounded=0;orthogonalLoop=1;jettySize=auto;html=1;" edge="1" parent="mvioNwK95yMqdUQ73LqQ-36" source="0m0kFeIcwNb91voC8SZH-72">
          <mxGeometry relative="1" as="geometry">
            <mxPoint x="2095" y="2170" as="targetPoint" />
          </mxGeometry>
        </mxCell>
        <mxCell id="0m0kFeIcwNb91voC8SZH-72" value="เติมเครื่องปรุง" style="rounded=0;whiteSpace=wrap;html=1;" vertex="1" parent="mvioNwK95yMqdUQ73LqQ-36">
          <mxGeometry x="2035" y="2000" width="120" height="60" as="geometry" />
        </mxCell>
        <mxCell id="0m0kFeIcwNb91voC8SZH-73" value="ตักน้ำใส่" style="rounded=0;whiteSpace=wrap;html=1;" vertex="1" parent="mvioNwK95yMqdUQ73LqQ-36">
          <mxGeometry x="1720" y="1890" width="120" height="60" as="geometry" />
        </mxCell>
        <mxCell id="0m0kFeIcwNb91voC8SZH-74" style="edgeStyle=orthogonalEdgeStyle;rounded=0;orthogonalLoop=1;jettySize=auto;html=1;" edge="1" parent="mvioNwK95yMqdUQ73LqQ-36">
          <mxGeometry relative="1" as="geometry">
            <mxPoint x="1820" y="2370" as="targetPoint" />
            <mxPoint x="2037.5" y="2229.5" as="sourcePoint" />
          </mxGeometry>
        </mxCell>
        <mxCell id="0m0kFeIcwNb91voC8SZH-75" value="เบิ่ด" style="edgeLabel;html=1;align=center;verticalAlign=middle;resizable=0;points=[];" vertex="1" connectable="0" parent="0m0kFeIcwNb91voC8SZH-74">
          <mxGeometry x="-0.2315" y="1" relative="1" as="geometry">
            <mxPoint as="offset" />
          </mxGeometry>
        </mxCell>
        <mxCell id="0m0kFeIcwNb91voC8SZH-76" style="edgeStyle=orthogonalEdgeStyle;rounded=0;orthogonalLoop=1;jettySize=auto;html=1;" edge="1" parent="mvioNwK95yMqdUQ73LqQ-36">
          <mxGeometry relative="1" as="geometry">
            <mxPoint x="2372.5" y="2229.5" as="targetPoint" />
            <mxPoint x="2150" y="2229.5" as="sourcePoint" />
          </mxGeometry>
        </mxCell>
        <mxCell id="0m0kFeIcwNb91voC8SZH-77" value="มีอยู่" style="edgeLabel;html=1;align=center;verticalAlign=middle;resizable=0;points=[];" vertex="1" connectable="0" parent="0m0kFeIcwNb91voC8SZH-76">
          <mxGeometry x="-0.236" y="1" relative="1" as="geometry">
            <mxPoint y="1" as="offset" />
          </mxGeometry>
        </mxCell>
        <mxCell id="0m0kFeIcwNb91voC8SZH-78" value="อยู่ๆก็อยากเติมน้ำปลา&lt;div&gt;มีน้ำปลาบ่อ้าย&lt;/div&gt;" style="rhombus;whiteSpace=wrap;html=1;" vertex="1" parent="mvioNwK95yMqdUQ73LqQ-36">
          <mxGeometry x="2037.5" y="2170" width="115" height="120" as="geometry" />
        </mxCell>
        <mxCell id="0m0kFeIcwNb91voC8SZH-79" style="edgeStyle=orthogonalEdgeStyle;rounded=0;orthogonalLoop=1;jettySize=auto;html=1;" edge="1" parent="mvioNwK95yMqdUQ73LqQ-36" source="0m0kFeIcwNb91voC8SZH-80">
          <mxGeometry relative="1" as="geometry">
            <mxPoint x="1950" y="2390" as="targetPoint" />
          </mxGeometry>
        </mxCell>
        <mxCell id="0m0kFeIcwNb91voC8SZH-80" value="ขอเงินไปซื้อน้ำปลา" style="rounded=0;whiteSpace=wrap;html=1;" vertex="1" parent="mvioNwK95yMqdUQ73LqQ-36">
          <mxGeometry x="1760" y="2360" width="120" height="60" as="geometry" />
        </mxCell>
        <mxCell id="0m0kFeIcwNb91voC8SZH-81" value="ไปซื้อน้ำปลาแล้วกลับบ้าน" style="rounded=0;whiteSpace=wrap;html=1;" vertex="1" parent="mvioNwK95yMqdUQ73LqQ-36">
          <mxGeometry x="1950" y="2360" width="120" height="60" as="geometry" />
        </mxCell>
        <mxCell id="0m0kFeIcwNb91voC8SZH-82" style="edgeStyle=orthogonalEdgeStyle;rounded=0;orthogonalLoop=1;jettySize=auto;html=1;entryX=0.57;entryY=0.917;entryDx=0;entryDy=0;entryPerimeter=0;" edge="1" parent="mvioNwK95yMqdUQ73LqQ-36" source="0m0kFeIcwNb91voC8SZH-81" target="0m0kFeIcwNb91voC8SZH-78">
          <mxGeometry relative="1" as="geometry" />
        </mxCell>
        <mxCell id="0m0kFeIcwNb91voC8SZH-83" style="edgeStyle=orthogonalEdgeStyle;rounded=0;orthogonalLoop=1;jettySize=auto;html=1;" edge="1" parent="mvioNwK95yMqdUQ73LqQ-36" source="0m0kFeIcwNb91voC8SZH-84">
          <mxGeometry relative="1" as="geometry">
            <mxPoint x="2430" y="2521" as="targetPoint" />
          </mxGeometry>
        </mxCell>
        <mxCell id="0m0kFeIcwNb91voC8SZH-84" value="เติมน้ำปลา" style="rounded=0;whiteSpace=wrap;html=1;" vertex="1" parent="mvioNwK95yMqdUQ73LqQ-36">
          <mxGeometry x="2370" y="2200" width="120" height="60" as="geometry" />
        </mxCell>
        <mxCell id="0m0kFeIcwNb91voC8SZH-85" style="edgeStyle=orthogonalEdgeStyle;rounded=0;orthogonalLoop=1;jettySize=auto;html=1;" edge="1" parent="mvioNwK95yMqdUQ73LqQ-36" source="0m0kFeIcwNb91voC8SZH-86">
          <mxGeometry relative="1" as="geometry">
            <mxPoint x="2080" y="2550" as="targetPoint" />
          </mxGeometry>
        </mxCell>
        <mxCell id="0m0kFeIcwNb91voC8SZH-86" value="คลุกเคล้าให้เข้ากัน" style="rounded=0;whiteSpace=wrap;html=1;" vertex="1" parent="mvioNwK95yMqdUQ73LqQ-36">
          <mxGeometry x="2370" y="2520" width="120" height="60" as="geometry" />
        </mxCell>
        <mxCell id="0m0kFeIcwNb91voC8SZH-87" style="edgeStyle=orthogonalEdgeStyle;rounded=0;orthogonalLoop=1;jettySize=auto;html=1;" edge="1" parent="mvioNwK95yMqdUQ73LqQ-36" source="0m0kFeIcwNb91voC8SZH-88">
          <mxGeometry relative="1" as="geometry">
            <mxPoint x="2020" y="2710" as="targetPoint" />
          </mxGeometry>
        </mxCell>
        <mxCell id="0m0kFeIcwNb91voC8SZH-88" value="กินมันซะไอพี่เวนบอกตรงๆก็จบ" style="rounded=0;whiteSpace=wrap;html=1;" vertex="1" parent="mvioNwK95yMqdUQ73LqQ-36">
          <mxGeometry x="1960" y="2520" width="120" height="60" as="geometry" />
        </mxCell>
        <mxCell id="0m0kFeIcwNb91voC8SZH-89" value="&lt;font style=&quot;font-size: 48px;&quot;&gt;จังหวัดจันทบุรี(จบ)&lt;/font&gt;" style="rounded=1;whiteSpace=wrap;html=1;arcSize=50;" vertex="1" parent="mvioNwK95yMqdUQ73LqQ-36">
          <mxGeometry x="1870" y="2710" width="320" height="140" as="geometry" />
        </mxCell>
        <mxCell id="mvioNwK95yMqdUQ73LqQ-70" value="&lt;font data-font-src=&quot;https://fonts.googleapis.com/css?family=Sarabun&quot; face=&quot;Sarabun&quot;&gt;โจทย์ปัญหา&lt;/font&gt;" style="swimlane;whiteSpace=wrap;html=1;" parent="WIyWlLk6GJQsqaUBKTNV-1" vertex="1">
          <mxGeometry x="-732.5" y="320" width="665" height="310" as="geometry" />
        </mxCell>
        <mxCell id="mvioNwK95yMqdUQ73LqQ-71" value="&lt;p style=&quot;line-height: 120%;&quot;&gt;&lt;font data-font-src=&quot;https://fonts.googleapis.com/css?family=Sarabun&quot; face=&quot;Sarabun&quot; style=&quot;font-size: 14px;&quot;&gt;&lt;b&gt;&lt;u&gt;โจทย์&lt;/u&gt;&lt;/b&gt; จงเขียน Flowchart เพื่อแสดงขั้นตอนการต้มบะหมี่กึ่งสำเร็จรูป (โดยผู้อ่าน Flowchart คือน้องของคุณ&lt;br&gt;&amp;nbsp; &amp;nbsp; &amp;nbsp; &amp;nbsp; &amp;nbsp; ที่มีอายุ 5 ขวบและกำลังหยิบ Flowchart มาต้มมาม่าให้คุณรับประทาน โดยคุณจะไม่พูดอะไรกับน้องเลย)&lt;br&gt;&lt;/font&gt;&lt;br&gt;&lt;/p&gt;&lt;p style=&quot;line-height: 120%;&quot;&gt;&lt;font face=&quot;Sarabun&quot;&gt;&lt;b&gt;&lt;u&gt;หมายเหตุ&lt;/u&gt;&lt;/b&gt; ทุกขั้นตอนควรมีการอธิบายอย่างละเอียด และเตรียมแก้ไขสำหรับเหตุการณ์ที่อาจผิดพลาดในทุกขั้นตอน&lt;br&gt;&amp;nbsp; &amp;nbsp; &amp;nbsp; &amp;nbsp; &amp;nbsp; เช่น&lt;br&gt;&amp;nbsp; &amp;nbsp; &amp;nbsp; &amp;nbsp; &amp;nbsp; - กรณีให้น้องไปซื้อของที่ตลาด แต่ของหมด ควรดำเนินการอย่างไร?&lt;br&gt;&amp;nbsp; &amp;nbsp; &amp;nbsp; &amp;nbsp; &amp;nbsp; - กรณีให้น้องต้มน้ำ แต่น้ำยังไม่เดือด ควรใส่บะหมี่สำเร็จรูปลงไปเลยไหม&lt;br&gt;&amp;nbsp; &amp;nbsp; &amp;nbsp; &amp;nbsp; &amp;nbsp; - กรณีระหว่างทำกับข้าวแล้วแก้สหมด ควรดำเนินการอย่างไร?&lt;br&gt;&amp;nbsp; &amp;nbsp; &amp;nbsp; &amp;nbsp; &amp;nbsp; - กรณีน้องไปซื้อของ แต่จำนวนเงินไม่พอ ควรทำอย่างไร?&lt;br&gt;&amp;nbsp; &amp;nbsp; &amp;nbsp; &amp;nbsp; &amp;nbsp; - กรณีน้องต้มบะหมี่เสร็จ แต่พึ่งมาทราบภายหลังว่าในซองบะหมี่ไม่มีเครื่องปรุงมาด้วย ต้องทำอย่างไร?&lt;/font&gt;&lt;/p&gt;" style="text;html=1;align=left;verticalAlign=top;resizable=0;points=[];autosize=1;strokeColor=none;fillColor=none;fontSize=14;" parent="mvioNwK95yMqdUQ73LqQ-70" vertex="1">
          <mxGeometry x="15" y="20" width="650" height="240" as="geometry" />
        </mxCell>
      </root>
    </mxGraphModel>
  </diagram>
</mxfile>
